<?xml version="1.0" encoding="utf-8"?>
<!-- Generator: Adobe Illustrator 28.2.0, SVG Export Plug-In . SVG Version: 6.00 Build 0)  -->
<svg version="1.1" xmlns="http://www.w3.org/2000/svg" xmlns:xlink="http://www.w3.org/1999/xlink" x="0px" y="0px"
	 viewBox="0 0 750 1150" style="enable-background:new 0 0 750 1150;" xml:space="preserve">
<style type="text/css">
	.st0{fill:none;}
	.st1{font-family:'PingFangSC-Semibold-GBpc-EUC-H';}
	.st2{font-size:21px;}
	.st3{fill:#EFEFEF;stroke:#999999;stroke-width:2;stroke-miterlimit:10;}
	.st4{font-family:'DominoMono-BoldC';}
	.st5{font-size:77.3874px;}
</style>
<g id="图层_5">
	<rect x="57.22" y="1104.22" class="st0" width="149.06" height="27.65"/>
	<text transform="matrix(1 0 0 1 57.2224 1122.283)" class="st1 st2">Home Page</text>
	<rect x="442.78" y="1104.22" class="st0" width="151.76" height="27.65"/>
	<g>
		<text transform="matrix(1 0 0 1 442.7775 1122.2825)" class="st1 st2">Project Name</text>
	</g>
	<rect x="643.46" y="1104.22" class="st0" width="35.31" height="27.65"/>
	<text transform="matrix(1 0 0 1 643.4626 1122.282)" class="st1 st2">00</text>
</g>
<g id="图层_4">
	<rect x="153.84" y="106.16" class="st3" width="475.6" height="871.22"/>
	<rect x="129.44" y="119.72" class="st3" width="475.6" height="871.22"/>
</g>
<g id="图层_3_00000032612271772146919000000002140771065535547549_">
	<rect x="129.44" y="119.72" class="st3" width="475.6" height="871.22"/>
</g>
<g id="图层_2_00000154416127318309324140000006440549336861371325_">
	<rect x="105.04" y="134.02" class="st3" width="475.6" height="871.22"/>
	<rect x="146.08" y="192.13" class="st0" width="407.86" height="338.9"/>
	<text transform="matrix(1 0 0 1 146.0762 258.6869)"><tspan x="0" y="0" class="st4 st5">Turn left </tspan><tspan x="0" y="77.39" class="st4 st5">to the </tspan><tspan x="0" y="154.77" class="st4 st5">next page</tspan></text>
</g>
<g id="图层_1_00000070826144374372965540000016596438304419887241_">
	<g>
		
			<rect x="616.92" y="560.43" transform="matrix(-1 -1.224647e-16 1.224647e-16 -1 1313.5525 1143.3099)" width="79.71" height="22.44"/>
		
			<rect x="538.76" y="538.96" transform="matrix(-1 -1.224647e-16 1.224647e-16 -1 1157.23 1100.3599)" width="79.71" height="22.44"/>
		<rect x="479.8" y="559.71" transform="matrix(-0.7071 -0.7071 0.7071 -0.7071 483.4062 1342.09)" width="79.71" height="22.44"/>
		
			<rect x="479.8" y="519.47" transform="matrix(-0.7071 0.7071 -0.7071 -0.7071 1262.3657 538.4847)" width="79.71" height="22.44"/>
	</g>
</g>
</svg>
